<svg width="220" height="186" viewBox="0 0 220 186" fill="none" xmlns="http://www.w3.org/2000/svg">
<path d="M27.1562 141.222V45.2944H69.0094C80.5951 45.2944 89.1395 47.5715 94.6426 52.1257C100.146 56.6798 102.897 63.1234 102.897 71.4566C102.897 76.5921 101.353 81.1462 98.2632 85.119C95.1737 89.0918 90.6359 91.6111 84.65 92.677V92.8223C91.3118 93.7913 96.4288 96.3106 100.001 100.38C103.573 104.45 105.359 109.295 105.359 114.915C105.359 123.151 102.391 129.595 96.4529 134.246C90.5153 138.897 81.8502 141.222 70.4576 141.222H27.1562ZM46.5622 126.106H68.7198C74.1264 126.106 78.1331 124.992 80.7399 122.763C83.3466 120.535 84.65 117.434 84.65 113.461C84.65 109.392 83.3466 106.291 80.7399 104.159C78.1331 102.027 74.1264 100.962 68.7198 100.962H46.5622V126.106ZM46.5622 85.555H66.4026C76.9263 85.555 82.1881 81.4369 82.1881 73.2007C82.1881 64.9645 76.9263 60.8464 66.4026 60.8464H46.5622V85.555ZM115.222 44.7778H192.843V61.3704H119.388L115.222 66.4903V44.7778ZM115.222 81.0741H192.843V97.6667H119.388L115.222 102.787V81.0741ZM115.222 117.37H192.843V133.963H119.388L115.222 139.083V117.37Z" fill="white"/>
</svg>
